<svg width="20" height="20" viewBox="0 0 20 20" fill="none" xmlns="http://www.w3.org/2000/svg">
<path fill-rule="evenodd" clip-rule="evenodd" d="M7.41634 1.66675H12.558C14.8163 1.66675 16.6413 2.55841 16.6663 4.82508V17.4751C16.6663 17.6167 16.633 17.7584 16.5663 17.8834C16.458 18.0834 16.2747 18.2334 16.0497 18.3001C15.833 18.3667 15.5913 18.3334 15.3913 18.2167L9.99134 15.5167L4.58301 18.2167C4.45884 18.2826 4.31634 18.3251 4.17467 18.3251C3.70801 18.3251 3.33301 17.9417 3.33301 17.4751V4.82508C3.33301 2.55841 5.16634 1.66675 7.41634 1.66675ZM6.84967 8.01675H13.1247C13.483 8.01675 13.7747 7.72425 13.7747 7.35841C13.7747 6.99175 13.483 6.70008 13.1247 6.70008H6.84967C6.49134 6.70008 6.19967 6.99175 6.19967 7.35841C6.19967 7.72425 6.49134 8.01675 6.84967 8.01675Z" fill="white"/>
</svg>
