<svg width="20" height="20" viewBox="0 0 20 20" fill="none" xmlns="http://www.w3.org/2000/svg">
<path fill-rule="evenodd" clip-rule="evenodd" d="M1.66699 10.0124C1.66699 5.62244 5.17533 1.6665 10.017 1.6665C14.7503 1.6665 18.3337 5.54733 18.3337 9.98732C18.3337 15.1367 14.1337 18.3332 10.0003 18.3332C8.63366 18.3332 7.11699 17.966 5.90033 17.2482C5.47533 16.9895 5.11699 16.7975 4.65866 16.9478L2.97533 17.4485C2.55033 17.582 2.16699 17.2482 2.29199 16.7975L2.85033 14.9281C2.94199 14.6693 2.92533 14.3939 2.79199 14.1769C2.07533 12.8583 1.66699 11.4145 1.66699 10.0124ZM8.91699 10.0124C8.91699 10.6049 9.39199 11.0806 9.98366 11.089C10.5753 11.089 11.0503 10.6049 11.0503 10.0207C11.0503 9.42815 10.5753 8.95243 9.98366 8.95243C9.40033 8.94409 8.91699 9.42815 8.91699 10.0124ZM12.7587 10.0207C12.7587 10.6049 13.2337 11.089 13.8253 11.089C14.417 11.089 14.892 10.6049 14.892 10.0207C14.892 9.42815 14.417 8.95243 13.8253 8.95243C13.2337 8.95243 12.7587 9.42815 12.7587 10.0207ZM6.14199 11.089C5.55866 11.089 5.07533 10.6049 5.07533 10.0207C5.07533 9.42815 5.55033 8.95243 6.14199 8.95243C6.73366 8.95243 7.20866 9.42815 7.20866 10.0207C7.20866 10.6049 6.73366 11.0806 6.14199 11.089Z" fill="white"/>
</svg>
