<svg width="24" height="24" viewBox="0 0 24 24" fill="none" xmlns="http://www.w3.org/2000/svg">
<g clip-path="url(#clip0_1619_12253)">
<path d="M23.0284 12.2245C23.0284 11.2413 22.95 10.5238 22.7803 9.77966H11.75V14.2176H18.2246C18.0941 15.3205 17.3892 16.9815 15.8227 18.0976L15.8008 18.2462L19.2883 20.9964L19.53 21.0209C21.749 18.9347 23.0284 15.8653 23.0284 12.2245Z" fill="#4285F4"/>
<path d="M11.7491 23.9176C14.9211 23.9176 17.584 22.8545 19.5291 21.0209L15.8218 18.0976C14.8297 18.8018 13.4982 19.2934 11.7491 19.2934C8.64233 19.2934 6.00551 17.2074 5.06556 14.324L4.92778 14.3359L1.30133 17.1927L1.25391 17.3269C3.18583 21.2334 7.15415 23.9176 11.7491 23.9176Z" fill="#34A853"/>
<path d="M5.06672 14.3239C4.81871 13.5798 4.67517 12.7825 4.67517 11.9587C4.67517 11.1349 4.81871 10.3376 5.05367 9.59354L5.0471 9.43507L1.37521 6.53235L1.25507 6.59052C0.458836 8.21162 0.00195312 10.032 0.00195312 11.9587C0.00195312 13.8854 0.458836 15.7058 1.25507 17.3269L5.06672 14.3239Z" fill="#FBBC05"/>
<path d="M11.7491 4.62403C13.9551 4.62403 15.4432 5.59401 16.2917 6.40461L19.6073 3.10928C17.571 1.1826 14.9211 0 11.7491 0C7.15415 0 3.18583 2.68406 1.25391 6.59056L5.0525 9.59359C6.00551 6.7102 8.64232 4.62403 11.7491 4.62403Z" fill="#EB4335"/>
</g>
<defs>
<clipPath id="clip0_1619_12253">
<rect width="23.04" height="24" fill="white"/>
</clipPath>
</defs>
</svg>
