<svg width="23" height="23" viewBox="0 0 23 23" fill="none" xmlns="http://www.w3.org/2000/svg">
<path d="M12.4583 14.1834C12.4583 13.76 12.1151 13.4168 11.6917 13.4168H10.5417C8.96962 13.4162 7.4273 13.8453 6.08146 14.6577C4.95799 15.3359 4.00711 16.2597 3.29787 17.3558C3.17539 17.5451 2.87488 17.4756 2.875 17.2501C2.875 12.2153 6.75733 8.08748 11.6918 7.69698C12.1139 7.66358 12.4583 7.32353 12.4583 6.90011V4.47025C12.4583 3.8274 13.2019 3.47 13.7039 3.87159L21.2933 9.94311C21.677 10.25 21.677 10.8335 21.2933 11.1404L13.7039 17.212C13.2019 17.6136 12.4583 17.2562 12.4583 16.6133V14.1834Z" fill="white"/>
</svg>
