<svg width="30" height="30" viewBox="0 0 30 30" fill="none" xmlns="http://www.w3.org/2000/svg">
<path fill-rule="evenodd" clip-rule="evenodd" d="M20.775 0.751216C21.7215 0.751216 22.6665 0.884716 23.565 1.18622C29.1015 2.98622 31.0965 9.06122 29.43 14.3712C28.485 17.0847 26.94 19.5612 24.9165 21.5847C22.02 24.3897 18.8415 26.8797 15.42 29.0247L15.045 29.2512L14.655 29.0097C11.2215 26.8797 8.02502 24.3897 5.10152 21.5697C3.09152 19.5462 1.54502 17.0847 0.585025 14.3712C-1.10998 9.06122 0.885025 2.98622 6.48152 1.15472C6.91653 1.00472 7.36503 0.899716 7.81502 0.841216H7.99502C8.41652 0.779716 8.83502 0.751216 9.25502 0.751216H9.42002C10.365 0.779716 11.28 0.944716 12.1665 1.24622H12.255C12.315 1.27472 12.36 1.30622 12.39 1.33472C12.7215 1.44122 13.035 1.56122 13.335 1.72622L13.905 1.98122C14.0428 2.05467 14.1974 2.16692 14.331 2.26392C14.4156 2.32538 14.4918 2.38073 14.55 2.41622C14.5745 2.43066 14.5994 2.44518 14.6245 2.45982C14.7531 2.5349 14.8871 2.61311 15 2.69972C16.6665 1.42622 18.69 0.736216 20.775 0.751216ZM24.765 11.5512C25.38 11.5347 25.905 11.0412 25.95 10.4097V10.2312C25.995 8.12972 24.7215 6.22622 22.785 5.49122C22.17 5.27972 21.495 5.61122 21.27 6.24122C21.06 6.87122 21.39 7.56122 22.02 7.78472C22.9815 8.14472 23.625 9.09122 23.625 10.1397V10.1862C23.5965 10.5297 23.7 10.8612 23.91 11.1162C24.12 11.3712 24.435 11.5197 24.765 11.5512Z" fill="white"/>
</svg>
