<svg width="24" height="22" viewBox="0 0 24 22" fill="none" xmlns="http://www.w3.org/2000/svg">
<path d="M11.11 21.0833C10.9941 21.0831 10.879 21.0645 10.77 21.0283C10.5598 20.9577 10.3815 20.8245 10.2636 20.65C10.1457 20.4755 10.0952 20.2697 10.12 20.0658L10.89 13.5666H5.00004C4.81837 13.5668 4.64006 13.5217 4.48426 13.4361C4.32845 13.3504 4.20104 13.2275 4.11571 13.0805C4.03038 12.9335 3.99035 12.7679 3.99992 12.6016C4.0095 12.4353 4.06831 12.2746 4.17004 12.1366L12.06 1.31993C12.1848 1.15065 12.3677 1.02444 12.5797 0.961335C12.7917 0.898226 13.0206 0.901837 13.23 0.971593C13.4314 1.04013 13.6034 1.16628 13.7204 1.33138C13.8375 1.49647 13.8935 1.69174 13.88 1.88826L13.11 8.43326H19C19.1817 8.43301 19.36 8.47813 19.5158 8.56377C19.6716 8.64941 19.799 8.77234 19.8844 8.91936C19.9697 9.06638 20.0097 9.23193 20.0002 9.39822C19.9906 9.56452 19.9318 9.72529 19.83 9.86326L11.94 20.6799C11.8483 20.8043 11.7247 20.9062 11.5799 20.9765C11.4352 21.0468 11.2738 21.0835 11.11 21.0833V21.0833Z" fill="white"/>
</svg>
